<?xml version="1.0" standalone="no"?>
<!DOCTYPE svg PUBLIC "-//W3C//DTD SVG 20010904//EN"
 "http://www.w3.org/TR/2001/REC-SVG-20010904/DTD/svg10.dtd">
<svg version="1.0" xmlns="http://www.w3.org/2000/svg"
 width="465.000000pt" height="465.000000pt" viewBox="0 0 465.000000 465.000000"
 preserveAspectRatio="xMidYMid meet">
<metadata>
Created by potrace 1.14, written by Peter Selinger 2001-2017
</metadata>
<g transform="translate(0.000000,465.000000) scale(0.100000,-0.100000)"
fill="#000000" stroke="none">
<path d="M2470 4168 c-189 -98 -986 -498 -991 -498 -2 0 -4 55 -4 123 1 67 -1
129 -3 137 -3 13 -53 15 -390 15 l-387 0 0 -332 c0 -204 -4 -336 -10 -342 -6
-5 -161 -86 -345 -180 l-335 -169 -3 -216 -2 -216 342 -2 343 -3 0 -482 0
-483 50 0 50 0 0 525 0 525 -353 0 -353 0 3 151 3 151 345 175 345 174 0 315
c0 174 2 319 5 323 7 9 603 9 610 -1 3 -4 5 -77 5 -162 0 -86 3 -156 7 -156 5
0 135 65 291 144 450 229 883 446 890 446 5 0 437 -266 487 -300 22 -15 1042
-651 1130 -705 89 -54 89 -55 199 -124 l85 -54 23 29 c13 16 23 31 23 34 0 3
-267 171 -593 374 -325 202 -603 376 -617 385 -22 15 -458 287 -628 391 -31
20 -68 43 -82 52 -24 15 -30 13 -140 -44z"/>
<path d="M2529 4002 c-30 -16 -121 -64 -204 -107 -82 -43 -190 -99 -240 -125
-49 -26 -144 -75 -210 -110 -66 -34 -160 -84 -210 -110 -49 -26 -148 -78 -220
-115 -348 -181 -629 -328 -885 -462 -52 -28 -146 -76 -207 -108 -62 -32 -113
-62 -113 -67 0 -7 37 -87 45 -96 2 -2 47 15 110 43 33 15 75 33 245 107 63 28
131 57 150 66 19 9 38 15 43 14 4 -1 7 2 7 8 0 5 6 10 14 10 8 0 53 18 100 40
47 22 88 40 91 40 2 0 28 11 57 24 29 14 148 66 263 116 116 51 224 98 240
105 17 8 174 77 350 153 176 77 351 154 389 171 37 18 75 29 85 26 9 -3 34
-22 57 -43 22 -20 65 -58 95 -84 30 -25 64 -54 75 -65 12 -10 44 -37 70 -59
27 -23 60 -52 74 -64 14 -12 47 -40 74 -63 27 -23 54 -47 60 -52 6 -6 43 -37
81 -70 39 -33 72 -62 75 -65 3 -3 34 -30 70 -60 35 -30 71 -61 78 -67 10 -10
139 -13 570 -13 471 0 553 2 537 14 -11 7 -195 122 -410 256 -444 276 -501
311 -570 355 -56 36 -402 252 -440 275 -14 8 -93 58 -177 110 -84 52 -155 96
-158 98 -4 1 -31 -10 -61 -26z"/>
<path d="M850 3520 c0 -143 2 -260 3 -260 4 0 251 125 410 207 l67 35 0 139 0
139 -240 0 -240 0 0 -260z"/>
<path d="M2170 3295 l0 -95 95 0 95 0 0 95 0 95 -95 0 -95 0 0 -95z"/>
<path d="M2450 3295 l0 -95 95 0 95 0 0 95 0 95 -95 0 -95 0 0 -95z"/>
<path d="M2170 3015 l0 -95 95 0 95 0 0 95 0 95 -95 0 -95 0 0 -95z"/>
<path d="M2450 3015 l0 -95 95 0 95 0 0 95 0 95 -95 0 -95 0 0 -95z"/>
<path d="M1085 2910 l-230 -109 -3 -726 -2 -725 40 0 c33 0 40 -3 40 -20 0
-19 7 -20 240 -20 l240 0 0 835 c0 459 -3 835 -7 835 -5 -1 -19 -7 -33 -15
-36 -21 -40 -19 -40 20 0 19 -3 35 -7 34 -5 0 -111 -50 -238 -109z"/>
<path d="M1780 2064 l0 -701 38 1 c30 1 38 -3 40 -19 3 -20 9 -20 237 -20
l235 0 0 172 0 173 149 0 c224 0 363 32 478 111 137 94 208 227 212 399 5 226
-92 380 -309 487 -106 52 -178 76 -260 89 -25 4 -219 8 -432 8 l-388 1 0 -701z
m793 283 c24 -17 46 -83 41 -121 -8 -60 -14 -73 -41 -101 -39 -38 -65 -46
-160 -50 l-83 -4 0 145 0 144 113 0 c75 0 119 -4 130 -13z"/>
<path d="M3380 2015 l0 -701 40 1 c34 1 40 -2 40 -19 0 -21 2 -21 574 -21 316
0 577 3 581 7 4 4 8 83 8 175 l1 168 -38 3 c-28 2 -40 9 -43 23 -5 18 -16 19
-217 20 -116 0 -254 1 -306 2 l-95 2 -2 70 -1 70 294 0 c162 0 295 2 295 5 4
15 5 317 1 327 -2 8 -15 11 -31 8 -25 -4 -54 6 -52 19 1 3 1 9 1 14 0 4 -109
7 -242 7 -134 -1 -248 1 -254 3 -7 2 -11 25 -10 60 l1 57 336 3 336 2 0 175
c0 96 -3 175 -6 176 -3 1 -18 2 -34 3 -30 3 -42 11 -42 29 0 9 -145 12 -567
12 l-568 1 0 -701z"/>
<path d="M4362 1057 c-27 -7 -57 -24 -82 -48 -35 -34 -40 -44 -40 -85 0 -53
26 -102 66 -129 15 -9 63 -32 108 -50 60 -24 84 -39 94 -58 25 -51 -26 -88
-97 -72 -39 8 -54 26 -60 76 -1 3 -31 5 -67 5 l-65 -1 6 -35 c17 -90 101 -144
225 -143 123 1 183 42 195 133 10 84 -48 149 -169 190 -79 26 -106 45 -106 75
0 62 116 73 140 14 12 -28 15 -29 76 -29 l64 0 -5 32 c-8 45 -49 95 -93 114
-44 19 -131 24 -190 11z"/>
<path d="M740 791 l0 -271 65 0 65 0 0 95 0 95 38 0 c37 -1 37 -1 82 -95 l45
-95 73 0 72 0 -56 109 -57 109 36 31 c43 38 56 72 53 138 -3 61 -30 103 -83
129 -31 15 -66 20 -185 22 l-148 3 0 -270z m267 143 c20 -20 24 -31 19 -57
-11 -52 -31 -66 -95 -64 l-56 2 -3 73 -3 72 56 0 c47 0 60 -4 82 -26z"/>
<path d="M1296 798 c-53 -145 -96 -266 -96 -270 0 -5 31 -8 68 -8 l68 0 13 50
13 50 92 0 92 0 13 -50 13 -50 69 0 c38 0 69 4 69 8 0 5 -38 109 -84 233 -46
123 -89 241 -95 262 l-13 37 -62 0 -63 0 -97 -262z m213 -70 c1 -5 -24 -8 -54
-8 -30 0 -55 3 -55 7 0 4 12 45 27 92 l27 86 27 -85 c15 -47 28 -88 28 -92z"/>
<path d="M1755 790 l-1 -270 66 0 66 0 -1 71 c-1 64 1 73 26 99 l28 28 39 -66
c22 -37 47 -82 56 -99 l17 -33 79 0 79 0 -90 147 c-49 81 -89 150 -89 154 0 3
38 56 85 117 47 61 85 114 85 117 0 3 -35 5 -77 5 l-78 0 -75 -111 c-41 -61
-77 -112 -80 -114 -3 -2 -5 48 -5 111 l1 114 -66 0 -65 0 0 -270z"/>
<path d="M2240 790 l1 -270 183 0 184 0 3 28 c2 15 3 37 1 50 -3 21 -7 22
-123 22 l-119 0 0 65 0 65 104 0 103 0 -1 48 -1 47 -100 0 -100 0 -3 58 -3 57
121 0 c129 0 123 -3 123 55 0 14 -1 30 -2 35 -1 6 -70 10 -186 10 l-185 0 0
-270z"/>
<path d="M2669 1043 c-1 -10 -2 -132 -3 -270 l-1 -253 65 0 65 0 0 165 c0 195
-9 196 110 -19 l80 -146 66 0 66 0 1 270 0 270 -64 0 c-63 0 -64 0 -65 -27 0
-16 0 -88 -1 -160 0 -74 -4 -133 -9 -133 -5 0 -9 4 -9 9 0 4 -39 76 -86 160
l-86 151 -64 0 c-54 0 -64 -3 -65 -17z"/>
<path d="M3200 790 l0 -270 65 0 65 0 0 168 0 167 96 -167 95 -168 65 0 64 0
0 270 0 270 -65 0 -65 0 1 -156 c0 -86 -2 -158 -4 -160 -5 -5 -177 294 -177
307 0 5 -31 9 -70 9 l-70 0 0 -270z"/>
<path d="M3730 873 c0 -208 7 -247 52 -298 71 -82 252 -83 326 -2 43 46 49 86
48 291 l-1 191 -64 0 -65 0 -2 -190 c-2 -230 0 -210 -25 -233 -31 -30 -109
-19 -125 16 -4 9 -9 100 -10 202 -2 102 -3 191 -3 198 -1 8 -21 12 -66 12
l-65 0 0 -187z"/>
</g>
</svg>
