<svg width="30" height="30" viewBox="0 0 30 30" fill="none" xmlns="http://www.w3.org/2000/svg">
<g clip-path="url(#clip0_2_1123)">
<path d="M19.8865 15.154L30.0002 21.5477V8.49023L19.8865 15.154Z" fill="#FF6C1C"/>
<path d="M0 8.49023V21.5477L10.1138 15.154L0 8.49023Z" fill="#FF6C1C"/>
<path d="M28.1251 4.6875H1.87515C0.939522 4.6875 0.197021 5.385 0.0563965 6.28313L15.0001 16.1287L29.9439 6.28313C29.8033 5.385 29.0608 4.6875 28.1251 4.6875Z" fill="#FF6C1C"/>
<path d="M18.1688 16.2865L15.5157 18.034C15.3582 18.1372 15.1801 18.1878 15.0001 18.1878C14.8201 18.1878 14.6419 18.1372 14.4844 18.034L11.8313 16.2847L0.0600586 23.7303C0.204434 24.6209 0.943184 25.3128 1.87506 25.3128H28.1251C29.0569 25.3128 29.7957 24.6209 29.9401 23.7303L18.1688 16.2865Z" fill="#FF6C1C"/>
</g>
<defs>
<clipPath id="clip0_2_1123">
<rect width="30" height="30" fill="white"/>
</clipPath>
</defs>
</svg>
