<svg width="26" height="26" viewBox="0 0 26 26" fill="none" xmlns="http://www.w3.org/2000/svg">
<path d="M25.265 19.0814L21.6366 15.453C20.3408 14.1571 18.1379 14.6755 17.6195 16.3601C17.2308 17.5264 15.9349 18.1743 14.7687 17.9151C12.177 17.2672 8.67817 13.898 8.03025 11.1767C7.64149 10.0104 8.419 8.71453 9.58526 8.32582C11.2699 7.80748 11.7882 5.60454 10.4924 4.30869L6.86398 0.68032C5.82731 -0.226773 4.27229 -0.226773 3.3652 0.68032L0.903085 3.14243C-1.55902 5.73413 1.16225 12.6021 7.25274 18.6926C13.3432 24.7831 20.2112 27.634 22.8029 25.0423L25.265 22.5801C26.1722 21.5435 26.1722 19.9885 25.265 19.0814Z" fill="#FF6C1C"/>
</svg>
