<svg width="50" height="50" viewBox="0 0 50 50" fill="none" xmlns="http://www.w3.org/2000/svg">
<path d="M25 0C11.1937 0 0 11.1937 0 25C0 38.8062 11.1937 50 25 50C38.8062 50 50 38.8062 50 25C50 11.1937 38.8062 0 25 0ZM37.2792 17.1271L33.175 36.4604C32.8729 37.8312 32.0562 38.1646 30.9167 37.5188L24.6667 32.9146L21.6542 35.8188C21.5066 36.0098 21.3172 36.1646 21.1005 36.2711C20.8838 36.3776 20.6456 36.4331 20.4042 36.4333H20.3937L20.8375 30.0708L32.4208 19.6083C32.9208 19.1646 32.3083 18.9125 31.6437 19.3563L17.3333 28.3687L11.1667 26.4437C9.83333 26.0208 9.79583 25.1104 11.4479 24.4562L35.5438 15.1687C36.6646 14.7604 37.6396 15.4354 37.2771 17.1292L37.2792 17.1271Z" fill="#FF6C1C"/>
</svg>
